inDegrees=no
num_controls=7
num_derivatives=13
num_iterations=61
num_multipliers=7
num_parameters=0
num_slacks=7
num_states=26
objective=0.333332
objective_accelerations=0.034072
objective_balance=0.003414
objective_effort=0.035074
objective_height=0.255539
objective_ligament=0.005233
solver_duration=891.629068
status=Solve_Succeeded
success=true
DataType=double
version=3
OpenSimVersion=4.5
endheader
time	/jointset/ground_pelvis/pelvis_tilt/value	/jointset/ground_pelvis/pelvis_tx/value	/jointset/ground_pelvis/pelvis_ty/value	/jointset/hip_l/hip_flexion_l/value	/jointset/hip_l/hip_adduction_l/value	/jointset/hip_l/hip_rotation_l/value	/jointset/back/lumbar_extension/value	/jointset/patellofemoral_l/patellar_flexion_l/value	/jointset/knee_l/knee_flexion_l/value	/jointset/knee_l/knee_adduction_l/value	/jointset/knee_l/knee_rotation_l/value	/jointset/ankle_l/ankle_angle_l/value	/jointset/subtalar_l/subtalar_angle_l/value	/jointset/ground_pelvis/pelvis_tilt/speed	/jointset/ground_pelvis/pelvis_tx/speed	/jointset/ground_pelvis/pelvis_ty/speed	/jointset/hip_l/hip_flexion_l/speed	/jointset/hip_l/hip_adduction_l/speed	/jointset/hip_l/hip_rotation_l/speed	/jointset/back/lumbar_extension/speed	/jointset/patellofemoral_l/patellar_flexion_l/speed	/jointset/knee_l/knee_flexion_l/speed	/jointset/knee_l/knee_adduction_l/speed	/jointset/knee_l/knee_rotation_l/speed	/jointset/ankle_l/ankle_angle_l/speed	/jointset/subtalar_l/subtalar_angle_l/speed	/forceset/tau_hip_flexion_l	/forceset/tau_hip_adduction_l	/forceset/tau_hip_rotation_l	/forceset/tau_knee_flexion_l	/forceset/tau_ankle_angle_l	/forceset/tau_subtalar_angle_l	/forceset/tau_lumbar_extension	lambda_cid13_p0	lambda_cid13_p1	lambda_cid13_p2	lambda_cid13_p3	lambda_cid13_p4	lambda_cid13_p5	lambda_cid14_p0	/jointset/ground_pelvis/pelvis_tilt/accel	/jointset/ground_pelvis/pelvis_tx/accel	/jointset/ground_pelvis/pelvis_ty/accel	/jointset/hip_l/hip_flexion_l/accel	/jointset/hip_l/hip_adduction_l/accel	/jointset/hip_l/hip_rotation_l/accel	/jointset/back/lumbar_extension/accel	/jointset/patellofemoral_l/patellar_flexion_l/accel	/jointset/knee_l/knee_flexion_l/accel	/jointset/knee_l/knee_adduction_l/accel	/jointset/knee_l/knee_rotation_l/accel	/jointset/ankle_l/ankle_angle_l/accel	/jointset/subtalar_l/subtalar_angle_l/accel	gamma_cid13_p0	gamma_cid13_p1	gamma_cid13_p2	gamma_cid13_p3	gamma_cid13_p4	gamma_cid13_p5	gamma_cid14_p0
0.5	-0.2870612178570912	-0.03263876596812951	0.4984142191891148	1.78924293785077	-0.4795627374653429	-0.02704146146498483	-0.2617183891715472	1.736019831782787	1.736019831782792	0.1482192163209707	-0.1729346046472441	0.4090111778134348	0.1027199076018345	0.004778558712159948	0.07420671233478179	-1.057836275400805	2.863148671913164	-0.1190105197786109	1.131432094012595	7.422611344215551e-05	2.90135863503344	2.90135863503337	0.3513522079521185	0.01386398527565171	0.3868364760360062	0.09910349613960476	-0.2297450808642991	0.002494362406715086	-0.0498460622791	-0.4925787619463328	0.05087839711220985	0.03959922378075478	0.2343432518797356	-25.9243450540951	-8.461719829511528	-3.780937475038415	5.557336843853646	-696.486897760019	-60.72423710913008	-0.03020963591644189	3.625254510903825	0.9984631865986029	3.12907614274148	-9.989983686495064	1.966236223452622	-0.4098136735573786	-0.05016743392390633	-10.1455223914103	-10.14552239141042	-2.606708139825922	-0.09330791277344207	-4.404822677847655	-0.3277455507558359	-2.284397107785375e-07	2.137274180846981e-06	5.462590056219054e-06	-3.106132319649938e-07	3.89404578799529e-07	1.40773538288452e-05	-1.459995177903972e-06
0.51	-0.2868363134041986	-0.03184822690339123	0.4879945816643776	1.817373836750139	-0.4806553537805658	-0.0157450632945845	-0.2617186799139095	1.764524953373283	1.764524953373288	0.1515978915397144	-0.172802670338446	0.4126625052779542	0.1036956945307629	0.03991064898545387	0.08375461130632395	-1.025837770562999	2.762664704393359	-0.0995737626749701	1.127565666618314	-0.0001282869133331901	2.799467100581896	2.799467100581851	0.3244758695985839	0.01243974853690272	0.3438169889722429	0.09627114806937315	-0.2313071966851775	0.0001806627053560381	-0.05117493260368243	-0.5002805123554879	0.05040477094070031	0.03840989041151871	0.2356742521489552	-26.6125393800841	-7.546583075891788	-4.244507501511774	6.973593181184531	-703.0984973842515	-60.40193102109667	-0.02989300488955399	3.413195164512632	0.9109349672462479	3.273346977421784	-10.13279284329179	1.922512021881451	-0.4179668723609667	-0.004680086243152652	-10.24046065830998	-10.24046065830608	-2.714858261384817	-0.177847138392235	-4.192220722596008	-0.2294382523199176	-1.749025675174788e-07	2.552605720211177e-06	5.746868052795708e-06	-1.421890062957557e-07	5.093886478276856e-07	1.532939770669137e-05	-1.497683220524273e-06
0.52	-0.2862688862727796	-0.03096661250597471	0.4779025510526428	1.844488858062593	-0.4815555792111403	-0.004495911318127313	-0.2617208731563738	1.792005261282006	1.792005261282013	0.1547104510592636	-0.1726871515138259	0.4158952960714449	0.1046494662155564	0.07328309441756731	0.09242177887042857	-0.9923148928003318	2.659973154530809	-0.08053234284886282	1.121982855224134	-0.0003062739076585394	2.696395898679012	2.696395898678992	0.2981290681143454	0.01058088843948984	0.3031291418302663	0.09470044731261816	-0.2328693125060645	-0.002133036996005606	-0.05250380292827656	-0.5079822627646433	0.04993114476919166	0.03722055704227931	0.2370052524181664	-27.32478516742241	-6.629280447982667	-4.706082428166513	8.442145173212253	-710.0100680746399	-60.22793327087778	-0.02950235608511838	3.273325542667707	0.8223169051111062	3.433950727713504	-10.43150015504424	1.887168767945923	-0.7530904735371677	-0.04526222743391551	-10.38145588167823	-10.38145588167832	-2.500800765966746	-0.1802325845062191	-3.938494693490268	-0.07541608806050554	-1.253899388805984e-07	2.915622894373018e-06	6.018498489297457e-06	2.400396376407891e-08	6.245736906729626e-07	1.653475459896845e-05	-1.536579806629887e-06
0.53	-0.2853770737096996	-0.03000285044542049	0.4681528149137729	1.870566461830787	-0.4822673507736456	0.006689911823214293	-0.2617245887296941	1.818449569646789	1.818449569646788	0.1575614883885942	-0.1725917115738478	0.4187335400504749	0.1055944449223703	0.1047446863115552	0.1001737263730375	-0.9574364797230681	2.555237609042865	-0.06192453359117023	1.114885645981654	-0.0004275431883792513	2.592335379099451	2.592335379099379	0.2721722056315806	0.008438720968048111	0.2649605911377891	0.09449206058013597	-0.2331941375538735	-0.004572657356678981	-0.05373884025824022	-0.5142307308040309	0.04967190643999324	0.0360015375455895	0.237264745332732	-27.84707449057852	-5.747059792156008	-5.145260873515491	9.815806232754719	-714.9271993870314	-59.96586651951915	-0.02904202916843492	3.032127834238113	0.7281199021984796	3.544301900307335	-10.54130838575042	1.831382944830592	-0.7330377084372982	0.005835356804853802	-10.43759787073637	-10.43759787074426	-2.62984813821035	-0.2396552202403748	-3.689754275384871	0.03473318408635006	-7.575933685843729e-08	3.227241158367809e-06	6.261944681983879e-06	1.822406229710995e-07	7.358606587478486e-07	1.767555135008093e-05	-1.574777522495844e-06
